<svg xmlns="http://www.w3.org/2000/svg" viewBox="0 0 900 300" role="img"><title>Pavlo Trinko · Senior Product Engineer · Web, mobile and desktop</title><rect width="900" height="300" rx="14" fill="#2739D0"/><path d="M137.75164794921875 0V1440H833.0867309570312Q1092.1631469726562 1440 1221.5283203125 1330.9426879882812Q1350.8934936523438 1221.8853759765625 1350.8934936523438 1005.3482666015625Q1350.8934936523438 790.7920532226562 1211.259765625 681.080810546875Q1071.6260375976562 571.3695678710938 789.7046508789062 571.3695678710938H472.54962158203125V0ZM472.54962158203125 829.7472534179688H810.2035522460938Q911.0147094726562 829.7472534179688 964.5837707519531 875.5466613769531Q1018.15283203125 921.3460693359375 1018.15283203125 1004.3673706054688Q1018.15283203125 1083.465087890625 966.0169067382812 1132.543701171875Q913.8809814453125 1181.622314453125 804.146240234375 1181.622314453125H472.54962158203125Z" transform="translate(36.000 100) scale(0.031250 -0.031250)" fill="#FFFFFF"/><path d="M448.74945068359375 -26.01910400390625Q346.13372802734375 -26.01910400390625 257.5477600097656 9.087066650390625Q168.9617919921875 44.1932373046875 114.52020263671875 116.52975463867188Q60.07861328125 188.86627197265625 60.07861328125 300.05731201171875Q60.07861328125 419.94049072265625 129.52975463867188 500.9309387207031Q198.98089599609375 581.92138671875 328.2398986816406 623.0084533691406Q457.4989013671875 664.0955200195312 637.7685546875 664.0955200195312H784.1168212890625L766.1168212890625 634.6539306640625V697.692138671875Q766.1168212890625 800.0977172851562 729.9331359863281 848.733642578125Q693.7494506835938 897.3695678710938 610.1124267578125 897.3695678710938Q529.4371948242188 897.3695678710938 487.2917175292969 854.6954345703125Q445.146240234375 812.0213012695312 433.74285888671875 731.539306640625L107.44378662109375 785.9808959960938Q125.1932373046875 876.3460693359375 186.39492797851562 949.192138671875Q247.59661865234375 1022.0382080078125 356.88427734375 1065.0382080078125Q466.17193603515625 1108.0382080078125 628.1697387695312 1108.0382080078125Q773.303466796875 1108.0382080078125 875.6579895019531 1063.2494506835938Q978.0125122070312 1018.460693359375 1032.1557922363281 914.3556213378906Q1086.299072265625 810.2505493164062 1086.299072265625 631.465087890625V289.89788818359375Q1086.299072265625 256.224853515625 1095.799072265625 245.224853515625Q1105.299072265625 234.224853515625 1136.299072265625 234.224853515625H1182.4923095703125V0H1033.0911254882812Q907.2101440429688 0 843.3747253417969 62.01800537109375Q779.539306640625 124.0360107421875 779.539306640625 242.20574951171875V287.919189453125L837.5180053710938 264.36297607421875Q824.8831787109375 221.01690673828125 800.6039733886719 171.12307739257812Q776.3247680664062 121.229248046875 732.6803894042969 76.32586669921875Q689.0360107421875 31.4224853515625 619.8152160644531 2.701690673828125Q550.5944213867188 -26.01910400390625 448.74945068359375 -26.01910400390625ZM543.9573974609375 190.0338134765625Q611.4776000976562 190.0338134765625 661.9500427246094 220.60177612304688Q712.4224853515625 251.16973876953125 740.7792053222656 310.7388000488281Q769.1359252929688 370.307861328125 769.1359252929688 457.13812255859375V483.63702392578125H651.9595947265625Q550.5922241210938 483.63702392578125 494.28326416015625 457.0499572753906Q437.97430419921875 430.462890625 415.7333068847656 392.423583984375Q393.4923095703125 354.38427734375 393.4923095703125 318.1910400390625Q393.4923095703125 292.09332275390625 406.0602722167969 262.1983947753906Q418.62823486328125 232.303466796875 451.16754150390625 211.16864013671875Q483.70684814453125 190.0338134765625 543.9573974609375 190.0338134765625Z" transform="translate(79.750 100) scale(0.031250 -0.031250)" fill="#FFFFFF"/><path d="M438.1168212890625 0 28.75164794921875 1080H391.08673095703125L643.22705078125 235.66424560546875H616.611328125L867.4246826171875 1080H1229.759765625L821.0485229492188 0Z" transform="translate(118.469 100) scale(0.031250 -0.031250)" fill="#FFFFFF"/><path d="M398.39898681640625 0Q266.4224853515625 0 198.90447998046875 61.681488037109375Q131.386474609375 123.36297607421875 131.386474609375 242.20574951171875V1500H455.530517578125V289.89788818359375Q455.530517578125 256.4940673828125 465.030517578125 245.35946044921874Q474.530517578125 234.224853515625 505.530517578125 234.224853515625H584.2821655273438V0Z" transform="translate(157.812 100) scale(0.031250 -0.031250)" fill="#FFFFFF"/><path d="M627.9228807054125 -26.692138671875Q462.5592013522311 -26.692138671875 336.36060395111906 45.2927175372914Q210.16200655000705 117.2775737464578 139.44727524765977 245.1387868732289Q68.7325439453125 373 68.7325439453125 540.3365173339844Q68.7325439453125 707.6730346679688 139.43500693948351 835.3189445130471Q210.13746993365456 962.9648543581254 336.3141731232521 1034.828496515Q462.4908763128496 1106.692138671875 627.8258666992188 1106.692138671875Q793.9595947265625 1106.692138671875 920.0551147460938 1034.8556213378906Q1046.150634765625 963.0191040039062 1117.2079467773438 835.4376386785183Q1188.2652587890625 707.8561733531303 1188.2652587890625 540.0915693425808Q1188.2652587890625 372.32696533203125 1117.3436692380114 244.6810554869529Q1046.4220796869604 117.0351456418746 919.8543198727771 45.1715034849998Q793.2865600585938 -26.692138671875 627.9228807054125 -26.692138671875ZM628.5825081582395 208.8787841796875Q731.6943359375 208.8787841796875 791.2538452148438 297.90665824458284Q850.8133544921875 386.9345323094782 850.8133544921875 540Q850.8133544921875 693.2527465820312 791.1702384237917 782.1869812011719Q731.5271223553959 871.1212158203125 628.4152945761355 871.1212158203125Q525.303466796875 871.1212158203125 465.74395751953125 782.1869812011719Q406.1844482421875 693.2527465820312 406.1844482421875 540Q406.1844482421875 386.40118408203125 465.8275643105833 297.6399841308594Q525.4706803789791 208.8787841796875 628.5825081582395 208.8787841796875Z" transform="translate(177.344 100) scale(0.031250 -0.031250)" fill="#FFFFFF"/><path d="" transform="translate(216.625 100) scale(0.031250 -0.031250)" fill="#FFFFFF"/><path d="M546.462890625 0V1156.0469970703125H38.86627197265625V1440H1390.8574829101562V1156.0469970703125H881.2608642578125V0Z" transform="translate(229.500 100) scale(0.031250 -0.031250)" fill="#FFFFFF"/><path d="M136.75164794921875 0V1080H450.89569091796875V834.1741333007812L437.4923095703125 866.9044799804688Q489.530517578125 989 581.6557922363281 1047.8460693359375Q673.7810668945312 1106.692138671875 786.2417602539062 1106.692138671875Q817.9338989257812 1106.692138671875 850.8181762695312 1101.692138671875Q883.7024536132812 1096.692138671875 916.451904296875 1084.692138671875L893.7788696289062 810.93017578125Q826.6642456054688 829.2762451171875 765.2608642578125 829.2762451171875Q713.0889282226562 829.2762451171875 659.2237548828125 811.738037109375Q605.3585815429688 794.1998291015625 560.56982421875 751.0076904296875Q515.7810668945312 707.8155517578125 488.33837890625 631.1807250976562Q460.89569091796875 554.5458984375 460.89569091796875 437.02569580078125V0Z" transform="translate(274.188 100) scale(0.031250 -0.031250)" fill="#FFFFFF"/><path d="M137.75164794921875 0V1080H461.89569091796875V0ZM299.82366943359375 1198.4077758789062Q204.13372802734375 1198.4077758789062 147.6539306640625 1254.8875732421875Q91.17413330078125 1311.3673706054688 91.17413330078125 1407.0573120117188Q91.17413330078125 1503.07421875 147.6539306640625 1559.3905334472656Q204.13372802734375 1615.7068481445312 299.82366943359375 1615.7068481445312Q395.840576171875 1615.7068481445312 452.1568908691406 1559.3905334472656Q508.47320556640625 1503.07421875 508.47320556640625 1407.0573120117188Q508.47320556640625 1311.3673706054688 452.1568908691406 1254.8875732421875Q395.840576171875 1198.4077758789062 299.82366943359375 1198.4077758789062Z" transform="translate(304.219 100) scale(0.031250 -0.031250)" fill="#FFFFFF"/><path d="M136.75164794921875 0V1080H450.89569091796875V829.9426879882812L443.22265625 874.61572265625Q493.62603759765625 984.4415893554688 582.9243469238281 1045.5668640136719Q672.22265625 1106.692138671875 799.1653442382812 1106.692138671875Q926.9530029296875 1106.692138671875 1006.9243469238281 1048.2887573242188Q1086.8956909179688 989.8853759765625 1124.4923095703125 887.6454772949219Q1162.0889282226562 785.4055786132812 1162.0889282226562 653.7516479492188V0H837.9448852539062V633.3482666015625Q837.9448852539062 744.8111572265625 803.2994079589844 804.6010131835938Q768.6539306640625 864.390869140625 681.3438720703125 864.390869140625Q575.2843627929688 864.390869140625 518.0900268554688 770.6403198242188Q460.89569091796875 676.8897705078125 460.89569091796875 480.87066650390625V0Z" transform="translate(322.969 100) scale(0.031250 -0.031250)" fill="#FFFFFF"/><path d="M137.75164794921875 0V1500H461.89569091796875V677.76416015625L860.537109375 1080H1223.4710083007812L824.5834350585938 676.7303466796875L1239.8743896484375 0H880.692138671875L609.0316162109375 452.33355712890625L461.89569091796875 303.390869140625V0Z" transform="translate(362.938 100) scale(0.031250 -0.031250)" fill="#FFFFFF"/><path d="M627.9228807054125 -26.692138671875Q462.5592013522311 -26.692138671875 336.36060395111906 45.2927175372914Q210.16200655000705 117.2775737464578 139.44727524765977 245.1387868732289Q68.7325439453125 373 68.7325439453125 540.3365173339844Q68.7325439453125 707.6730346679688 139.43500693948351 835.3189445130471Q210.13746993365456 962.9648543581254 336.3141731232521 1034.828496515Q462.4908763128496 1106.692138671875 627.8258666992188 1106.692138671875Q793.9595947265625 1106.692138671875 920.0551147460938 1034.8556213378906Q1046.150634765625 963.0191040039062 1117.2079467773438 835.4376386785183Q1188.2652587890625 707.8561733531303 1188.2652587890625 540.0915693425808Q1188.2652587890625 372.32696533203125 1117.3436692380114 244.6810554869529Q1046.4220796869604 117.0351456418746 919.8543198727771 45.1715034849998Q793.2865600585938 -26.692138671875 627.9228807054125 -26.692138671875ZM628.5825081582395 208.8787841796875Q731.6943359375 208.8787841796875 791.2538452148438 297.90665824458284Q850.8133544921875 386.9345323094782 850.8133544921875 540Q850.8133544921875 693.2527465820312 791.1702384237917 782.1869812011719Q731.5271223553959 871.1212158203125 628.4152945761355 871.1212158203125Q525.303466796875 871.1212158203125 465.74395751953125 782.1869812011719Q406.1844482421875 693.2527465820312 406.1844482421875 540Q406.1844482421875 386.40118408203125 465.8275643105833 297.6399841308594Q525.4706803789791 208.8787841796875 628.5825081582395 208.8787841796875Z" transform="translate(402.531 100) scale(0.031250 -0.031250)" fill="#FFFFFF"/><path d="M316.613525390625 -26.692138671875Q218.9617919921875 -26.692138671875 159.48199462890625 32.78765869140625Q100.002197265625 92.2674560546875 100.002197265625 189.919189453125Q100.002197265625 287.5709228515625 159.48199462890625 347.05072021484375Q218.9617919921875 406.530517578125 316.613525390625 406.530517578125Q414.2652587890625 406.530517578125 473.74505615234375 347.05072021484375Q533.224853515625 287.5709228515625 533.224853515625 189.919189453125Q533.224853515625 92.2674560546875 473.74505615234375 32.78765869140625Q414.2652587890625 -26.692138671875 316.613525390625 -26.692138671875Z" transform="translate(441.812 100) scale(0.031250 -0.031250)" fill="#FFFFFF"/><path d="M657.7234497070312 -24.303955078125Q492.33135986328125 -24.303955078125 367.1976013183594 30.36016845703125Q242.0638427734375 85.0242919921875 164.2401123046875 189.9163818359375Q86.4163818359375 294.8084716796875 61.4163818359375 444.49237060546875L290.08221435546875 491.37994384765625Q297.23419189453125 320.00311279296875 390.7265625 228.84054565429688Q484.21893310546875 137.677978515625 652.343505859375 137.677978515625Q755.2036743164062 137.677978515625 825.5379943847656 170.462158203125Q895.872314453125 203.246337890625 932.548583984375 262.4727478027344Q969.224853515625 321.69915771484375 969.224853515625 401.0638427734375Q969.224853515625 508.73248291015625 905.3707580566406 561.63671875Q841.5166625976562 614.5409545898438 731.7203369140625 638.6290893554688L549.4954833984375 678.8053588867188Q494.37994384765625 691.0333251953125 424.3221740722656 712.5272521972656Q354.264404296875 734.0211791992188 289.656494140625 775.5910949707031Q225.048583984375 817.1610107421875 182.548583984375 887.6549377441406Q140.048583984375 958.1488647460938 140.048583984375 1067.3768310546875Q140.048583984375 1206.7567749023438 211.66256713867188 1294.2005615234375Q283.27655029296875 1381.6443481445312 399.1823425292969 1422.9741516113281Q515.088134765625 1464.303955078125 647.9635620117188 1464.303955078125Q797.6474609375 1464.303955078125 906.3131408691406 1416.8799438476562Q1014.9788208007812 1369.4559326171875 1082.4925231933594 1282.1139831542969Q1150.0062255859375 1194.7720336914062 1173.3101806640625 1072.7081909179688L948.1002807617188 1025.74462890625Q939.9483032226562 1114.3251342773438 904.2401123046875 1175.7734375Q868.5319213867188 1237.2217407226562 803.431640625 1269.7718811035156Q738.3313598632812 1302.322021484375 640.0031127929688 1302.322021484375Q559.383056640625 1302.322021484375 491.2007141113281 1278.7399597167969Q423.01837158203125 1255.1578979492188 381.2600402832031 1206.0956115722656Q339.501708984375 1157.0333251953125 339.501708984375 1079.5166625976562Q339.501708984375 995.4923706054688 400.1795349121094 945.8161010742188Q460.85736083984375 896.1398315429688 597.3497314453125 865.2796630859375L781.8025512695312 823.1793823242188Q883.1824951171875 800.6353149414062 973.9803771972656 754.559326171875Q1064.7782592773438 708.4833374023438 1121.462158203125 625.5274047851562Q1178.1460571289062 542.5714721679688 1178.1460571289062 407.03955078125Q1178.1460571289062 270.44378662109375 1114.9743041992188 173.7598876953125Q1051.8025512695312 77.07598876953125 935.098876953125 26.386016845703125Q818.3952026367188 -24.303955078125 657.7234497070312 -24.303955078125Z" transform="translate(39.000 154) scale(0.013184 -0.013184)" fill="#FFFFFF"/><path d="M605.3313598632812 -24.303955078125Q450.72344970703125 -24.303955078125 336.32373046875 44.734039306640625Q221.92401123046875 113.77203369140625 159.17626953125 240.38601684570312Q96.42852783203125 367 96.42852783203125 539.303955078125Q96.42852783203125 712.303955078125 158.98629760742188 839.2659606933594Q221.5440673828125 966.2279663085938 334.5577697753906 1035.2659606933594Q447.57147216796875 1104.303955078125 599.0152587890625 1104.303955078125Q685.47119140625 1104.303955078125 772.6550903320312 1076.8419494628906Q859.8389892578125 1049.3799438476562 932.0608825683594 981.7279663085938Q1004.2827758789062 914.0759887695312 1048.2387084960938 795.9300842285156Q1092.1946411132812 677.7841796875 1092.1946411132812 497.34039306640625H215.7508544921875V637.8997192382812H930.009033203125L884.2127075195312 576.2675170898438Q878.832763671875 713.6322021484375 839.0865783691406 796.9346008300781Q799.3403930664062 880.2369995117188 736.0440673828125 917.59716796875Q672.7477416992188 954.9573364257812 595.3313598632812 954.9573364257812Q502.45904541015625 954.9573364257812 435.6627197265625 906.0652465820312Q368.86639404296875 857.1731567382812 333.3101806640625 764.1488647460938Q297.75396728515625 671.1245727539062 297.75396728515625 538.2279663085938Q297.75396728515625 341.9271240234375 377.2524108886719 234.24478149414062Q456.7508544921875 126.56243896484375 605.0274047851562 126.56243896484375Q710.303955078125 126.56243896484375 782.6382751464844 179.77670288085938Q854.9725952148438 232.990966796875 889.440673828125 334.559326171875L1068.6505737304688 276.81158447265625Q1029.7265625 180.4559326171875 963.1307983398438 113.3480224609375Q896.5350341796875 46.2401123046875 805.667236328125 10.96807861328125Q714.7994384765625 -24.303955078125 605.3313598632812 -24.303955078125Z" transform="translate(55.677 154) scale(0.013184 -0.013184)" fill="#FFFFFF"/><path d="M160.03643798828125 0V1080H335.66583251953125V835.3161010742188L328.58984375 879.39208984375Q372.42572021484375 974.2918090820312 465.0077819824219 1039.2978820800781Q557.58984375 1104.303955078125 689.9059448242188 1104.303955078125Q806.3497314453125 1104.303955078125 889.0077819824219 1052.4680786132812Q971.6658325195312 1000.6322021484375 1015.8299560546875 905.2583312988281Q1059.9940795898438 809.8844604492188 1059.9940795898438 677.0364379882812V0H874.3646850585938V663.2005615234375Q874.3646850585938 793.7689208984375 822.1063537597656 873.2612915039062Q769.8480224609375 952.753662109375 649.1033935546875 952.753662109375Q517.3709106445312 952.753662109375 431.51837158203125 851.2415161132812Q345.66583251953125 749.7293701171875 345.66583251953125 555.5014038085938V0Z" transform="translate(71.234 154) scale(0.013184 -0.013184)" fill="#FFFFFF"/><path d="M161.03643798828125 0V1080H346.66583251953125V0ZM253.85113525390625 1253.9330444335938Q191.59576416015625 1253.9330444335938 148.8480224609375 1296.6807861328125Q106.10028076171875 1339.4285278320312 106.10028076171875 1401.6838989257812Q106.10028076171875 1464.86328125 148.8480224609375 1507.1490173339844Q191.59576416015625 1549.4347534179688 253.85113525390625 1549.4347534179688Q317.030517578125 1549.4347534179688 359.3162536621094 1507.1490173339844Q401.60198974609375 1464.86328125 401.60198974609375 1401.6838989257812Q401.60198974609375 1339.4285278320312 359.3162536621094 1296.6807861328125Q317.030517578125 1253.9330444335938 253.85113525390625 1253.9330444335938Z" transform="translate(87.054 154) scale(0.013184 -0.013184)" fill="#FFFFFF"/><path d="M612.9106725744299 -24.303955078125Q459.40185051995354 -24.303955078125 342.2503810573269 47.25078746113429Q225.09891159470016 118.80553000039357 159.45369163719383 245.90276500019678Q93.8084716796875 373 93.8084716796875 540.0379943847656Q93.8084716796875 707.0759887695312 159.45230648768086 834.1489150193836Q225.09614129567424 961.221841269236 342.2451387991701 1032.7628981736805Q459.39413630266597 1104.303955078125 612.8997192382812 1104.303955078125Q766.4954833984375 1104.303955078125 883.6353149414062 1032.7659606933594Q1000.775146484375 961.2279663085938 1066.4590454101562 834.1623161471621Q1132.1429443359375 707.0966659857303 1132.1429443359375 540.0103386080995Q1132.1429443359375 372.92401123046875 1066.4743691122994 245.85108498061635Q1000.8057938886611 118.77815873076393 883.6126442587837 47.23710182631947Q766.4194946289062 -24.303955078125 612.9106725744299 -24.303955078125ZM612.985147606512 126.4864501953125Q760.3525390625 126.4864501953125 845.5850219726562 237.6669800956294Q930.8175048828125 348.8475099959463 930.8175048828125 540Q930.8175048828125 732.0607299804688 845.5755823739566 842.7871398925781Q760.3336598651009 953.5135498046875 612.966268409113 953.5135498046875Q465.598876953125 953.5135498046875 380.36639404296875 842.7871398925781Q295.1339111328125 732.0607299804688 295.1339111328125 540Q295.1339111328125 348.78729248046875 380.3758336416683 237.63687133789062Q465.6177561505241 126.4864501953125 612.985147606512 126.4864501953125Z" transform="translate(93.751 154) scale(0.013184 -0.013184)" fill="#FFFFFF"/><path d="M160.03643798828125 0V1080H335.66583251953125V849.1002807617188L328.8299560546875 875.8601684570312Q377.285888671875 989 473.2919616699219 1046.6519775390625Q569.2980346679688 1104.303955078125 669.8178100585938 1104.303955078125Q699.1217651367188 1104.303955078125 727.2296752929688 1099.303955078125Q755.3375854492188 1094.303955078125 780.325439453125 1082.303955078125L758.2494506835938 911.23388671875Q701.8816528320312 928.3858642578125 647.0457763671875 928.3858642578125Q610.9940795898438 928.3858642578125 560.1141357421875 914.429931640625Q509.23419189453125 900.4739990234375 460.26611328125 859.6700439453125Q411.29803466796875 818.8660888671875 378.48193359375 739.2460327148438Q345.66583251953125 659.6259765625 345.66583251953125 528.3737182617188V0Z" transform="translate(109.915 154) scale(0.013184 -0.013184)" fill="#FFFFFF"/><path d="" transform="translate(120.962 154) scale(0.013184 -0.013184)" fill="#FFFFFF"/><path d="M161.03643798828125 0V1440H699.9454956054688Q951.8573608398438 1440 1078.2373046875 1336.3161010742188Q1204.6172485351562 1232.6322021484375 1204.6172485351562 1035.2005615234375Q1204.6172485351562 841.5409545898438 1077.521484375 736.009033203125Q950.4257202148438 630.4771118164062 692.3861694335938 630.4771118164062H358.51385498046875V0ZM358.51385498046875 790.9392700195312H697.3618774414062Q847.1307983398438 790.9392700195312 925.4772644042969 855.5456237792969Q1003.82373046875 920.1519775390625 1003.82373046875 1032.4285278320312Q1003.82373046875 1133.616943359375 933.1793823242188 1206.577392578125Q862.5350341796875 1279.537841796875 696.677978515625 1279.537841796875H358.51385498046875Z" transform="translate(127.660 154) scale(0.013184 -0.013184)" fill="#FFFFFF"/><path d="M160.03643798828125 0V1080H335.66583251953125V849.1002807617188L328.8299560546875 875.8601684570312Q377.285888671875 989 473.2919616699219 1046.6519775390625Q569.2980346679688 1104.303955078125 669.8178100585938 1104.303955078125Q699.1217651367188 1104.303955078125 727.2296752929688 1099.303955078125Q755.3375854492188 1094.303955078125 780.325439453125 1082.303955078125L758.2494506835938 911.23388671875Q701.8816528320312 928.3858642578125 647.0457763671875 928.3858642578125Q610.9940795898438 928.3858642578125 560.1141357421875 914.429931640625Q509.23419189453125 900.4739990234375 460.26611328125 859.6700439453125Q411.29803466796875 818.8660888671875 378.48193359375 739.2460327148438Q345.66583251953125 659.6259765625 345.66583251953125 528.3737182617188V0Z" transform="translate(144.469 154) scale(0.013184 -0.013184)" fill="#FFFFFF"/><path d="M612.9106725744299 -24.303955078125Q459.40185051995354 -24.303955078125 342.2503810573269 47.25078746113429Q225.09891159470016 118.80553000039357 159.45369163719383 245.90276500019678Q93.8084716796875 373 93.8084716796875 540.0379943847656Q93.8084716796875 707.0759887695312 159.45230648768086 834.1489150193836Q225.09614129567424 961.221841269236 342.2451387991701 1032.7628981736805Q459.39413630266597 1104.303955078125 612.8997192382812 1104.303955078125Q766.4954833984375 1104.303955078125 883.6353149414062 1032.7659606933594Q1000.775146484375 961.2279663085938 1066.4590454101562 834.1623161471621Q1132.1429443359375 707.0966659857303 1132.1429443359375 540.0103386080995Q1132.1429443359375 372.92401123046875 1066.4743691122994 245.85108498061635Q1000.8057938886611 118.77815873076393 883.6126442587837 47.23710182631947Q766.4194946289062 -24.303955078125 612.9106725744299 -24.303955078125ZM612.985147606512 126.4864501953125Q760.3525390625 126.4864501953125 845.5850219726562 237.6669800956294Q930.8175048828125 348.8475099959463 930.8175048828125 540Q930.8175048828125 732.0607299804688 845.5755823739566 842.7871398925781Q760.3336598651009 953.5135498046875 612.966268409113 953.5135498046875Q465.598876953125 953.5135498046875 380.36639404296875 842.7871398925781Q295.1339111328125 732.0607299804688 295.1339111328125 540Q295.1339111328125 348.78729248046875 380.3758336416683 237.63687133789062Q465.6177561505241 126.4864501953125 612.985147606512 126.4864501953125Z" transform="translate(155.517 154) scale(0.013184 -0.013184)" fill="#FFFFFF"/><path d="M525.1884155273438 -24.303955078125Q393.58050537109375 -24.303955078125 293.156494140625 44.5440673828125Q192.73248291015625 113.39208984375 136.99844360351562 240.43008422851562Q81.264404296875 367.46807861328125 81.264404296875 541.1519775390625Q81.264404296875 714.8358764648438 137.49844360351562 841.2978820800781Q193.73248291015625 967.7598876953125 293.7704772949219 1036.0319213867188Q393.8084716796875 1104.303955078125 525.7963256835938 1104.303955078125Q633.6200561523438 1104.303955078125 736.2142639160156 1051.0Q838.8084716796875 997.696044921875 892.4923706054688 871.7720336914062L871.9725952148438 864.60791015625V1500H1057.6019897460938V0H882.7324829101562V223.9361572265625L887.5045166015625 208.01214599609375Q842.13671875 90.16412353515625 741.3145446777344 32.930084228515625Q640.4923706054688 -24.303955078125 525.1884155273438 -24.303955078125ZM577.9271240234375 127.32232666015625Q660.8754272460938 127.32232666015625 728.8997192382812 170.37246704101562Q796.9240112304688 213.422607421875 837.5942077636719 304.490966796875Q878.264404296875 395.559326171875 878.264404296875 537.1519775390625Q878.264404296875 748.7689208984375 790.9620056152344 850.7612915039062Q703.6596069335938 952.753662109375 580.0031127929688 952.753662109375Q449.49859619140625 952.753662109375 366.3101806640625 844.8752746582031Q283.12176513671875 736.9968872070312 283.12176513671875 536.8480224609375Q283.12176513671875 342.47119140625 363.4241638183594 234.89675903320312Q443.7265625 127.32232666015625 577.9271240234375 127.32232666015625Z" transform="translate(171.680 154) scale(0.013184 -0.013184)" fill="#FFFFFF"/><path d="M508.27655029296875 -24.303955078125Q393.75677490234375 -24.303955078125 311.06072998046875 27.53192138671875Q228.36468505859375 79.3677978515625 184.2005615234375 175.20367431640625Q140.03643798828125 271.03955078125 140.03643798828125 402.96356201171875V1080H325.66583251953125V418.9271240234375Q325.66583251953125 287.15509033203125 374.98193359375 207.20071411132812Q424.29803466796875 127.246337890625 549.5107421875 127.246337890625Q641.03955078125 127.246337890625 709.2279663085938 174.47274780273438Q777.4163818359375 221.69915771484375 815.8905334472656 317.519775390625Q854.3646850585938 413.34039306640625 854.3646850585938 559.0850219726562V1080H1039.9940795898438V0H864.3646850585938V253.92401123046875L871.440673828125 209.8480224609375Q828.52880859375 108.480224609375 735.4847412109375 42.088134765625Q642.440673828125 -24.303955078125 508.27655029296875 -24.303955078125Z" transform="translate(187.737 154) scale(0.013184 -0.013184)" fill="#FFFFFF"/><path d="M598.7872924804688 -24.303955078125Q444.2796630859375 -24.303955078125 331.4939270019531 44.696044921875Q218.70819091796875 113.696044921875 157.7203369140625 240.31002807617188Q96.73248291015625 366.92401123046875 96.73248291015625 540.0759887695312Q96.73248291015625 713.303955078125 157.68234252929688 839.8419494628906Q218.6322021484375 966.3799438476562 331.37994384765625 1035.3419494628906Q444.127685546875 1104.303955078125 598.559326171875 1104.303955078125Q715.3952026367188 1104.303955078125 808.7189331054688 1061.6139831542969Q902.0426635742188 1018.9240112304688 966.9484558105469 938.4741516113281Q1031.854248046875 858.0242919921875 1061.3983154296875 743.8206176757812L875.2765502929688 696.7689208984375Q848.1884155273438 821.3251342773438 777.6641235351562 887.4193420410156Q707.1398315429688 953.5135498046875 598.4073486328125 953.5135498046875Q453.13079833984375 953.5135498046875 375.5943603515625 844.9892578125Q298.05792236328125 736.4649658203125 298.05792236328125 539.6200561523438Q298.05792236328125 341.9271240234375 375.5563659667969 234.206787109375Q453.0548095703125 126.4864501953125 598.4833374023438 126.4864501953125Q705.9878540039062 126.4864501953125 776.1261291503906 190.04873657226562Q846.264404296875 253.61102294921875 874.96044921875 375.17938232421875L1059.0183715820312 326.7994384765625Q1035.4743041992188 242.59576416015625 992.5624389648438 177.60791015625Q949.6505737304688 112.62005615234375 890.6687927246094 67.50607299804688Q831.68701171875 22.39208984375 758.1231689453125 -0.9559326171875Q684.559326171875 -24.303955078125 598.7872924804688 -24.303955078125Z" transform="translate(203.558 154) scale(0.013184 -0.013184)" fill="#FFFFFF"/><path d="M401.37091064453125 0Q329.696044921875 0 279.49237060546875 44.665679931640625Q229.2886962890625 89.33135986328125 229.2886962890625 160.41046142578125V929.361572265625H57.94830322265625V1080H229.2886962890625V1304.1002807617188L414.9180908203125 1344.9635620117188V1080H626.9423828125V929.361572265625H414.9180908203125V205.71441650390625Q414.9180908203125 172.6688232421875 424.4180908203125 161.65362548828125Q433.9180908203125 150.638427734375 464.9180908203125 150.638427734375H629.9180908203125V0Z" transform="translate(218.561 154) scale(0.013184 -0.013184)" fill="#FFFFFF"/><path d="" transform="translate(227.881 154) scale(0.013184 -0.013184)" fill="#FFFFFF"/><path d="M161.03643798828125 0V1440H1119.1550903320312V1276.6502685546875H358.51385498046875V845.6991577148438H1021.6353149414062V683.8692016601562H358.51385498046875V163.3497314453125H1133.1550903320312V0Z" transform="translate(234.579 154) scale(0.013184 -0.013184)" fill="#FFFFFF"/><path d="M160.03643798828125 0V1080H335.66583251953125V835.3161010742188L328.58984375 879.39208984375Q372.42572021484375 974.2918090820312 465.0077819824219 1039.2978820800781Q557.58984375 1104.303955078125 689.9059448242188 1104.303955078125Q806.3497314453125 1104.303955078125 889.0077819824219 1052.4680786132812Q971.6658325195312 1000.6322021484375 1015.8299560546875 905.2583312988281Q1059.9940795898438 809.8844604492188 1059.9940795898438 677.0364379882812V0H874.3646850585938V663.2005615234375Q874.3646850585938 793.7689208984375 822.1063537597656 873.2612915039062Q769.8480224609375 952.753662109375 649.1033935546875 952.753662109375Q517.3709106445312 952.753662109375 431.51837158203125 851.2415161132812Q345.66583251953125 749.7293701171875 345.66583251953125 555.5014038085938V0Z" transform="translate(250.465 154) scale(0.013184 -0.013184)" fill="#FFFFFF"/><path d="M546.03955078125 -414.303955078125Q302.22796630859375 -414.303955078125 186.51821899414062 -346.57598876953125Q70.8084716796875 -278.8480224609375 70.8084716796875 -137.39208984375Q70.8084716796875 -56.25225830078125 112.4163818359375 5.68389892578125Q154.0242919921875 67.62005615234375 251.9847412109375 100.480224609375Q214.06072998046875 123.9361572265625 190.40267944335938 162.088134765625Q166.74462890625 200.2401123046875 166.74462890625 247.16412353515625Q166.74462890625 303.8480224609375 202.16256713867188 348.5379943847656Q237.58050537109375 393.22796630859375 303.4163818359375 412.4559326171875Q223.49237060546875 459.7598876953125 179.03036499023438 540.0319213867188Q134.568359375 620.303955078125 134.568359375 726.4680786132812Q134.568359375 842.39208984375 186.90423583984375 927.1200561523438Q239.2401123046875 1011.8480224609375 335.87994384765625 1058.0759887695312Q432.519775390625 1104.303955078125 565.431640625 1104.303955078125Q698.343505859375 1104.303955078125 795.8693542480469 1058.0759887695312Q893.3952026367188 1011.8480224609375 946.6550903320312 926.6580505371094Q999.9149780273438 841.4680786132812 999.9149780273438 724.6200561523438Q999.9149780273438 609.696044921875 946.6930847167969 525.89208984375Q893.47119140625 442.088134765625 795.4453430175781 396.3221740722656Q697.4194946289062 350.55621337890625 562.5836181640625 350.55621337890625H472.39520263671875Q350.11865234375 350.55621337890625 350.11865234375 278.44378662109375Q350.11865234375 210.17938232421875 469.00311279296875 210.17938232421875H685.3070678710938Q811.0274047851562 210.17938232421875 889.3754272460938 181.059326171875Q967.7234497070312 151.93927001953125 1010.1733093261719 105.55325317382812Q1052.6231689453125 59.167236328125 1068.6110229492188 4.48333740234375Q1084.598876953125 -50.2005615234375 1084.598876953125 -101.3282470703125Q1084.598876953125 -261.088134765625 967.5471801757812 -337.696044921875Q850.4954833984375 -414.303955078125 604.8480224609375 -414.303955078125ZM546.951416015625 -272.62908935546875H605.4559326171875Q893.1974487304688 -272.62908935546875 893.1974487304688 -100.70819091796875Q893.1974487304688 -29.6717529296875 841.6731567382812 15.656494140625Q790.1488647460938 60.9847412109375 664.6443481445312 60.9847412109375H484.72344970703125Q389.814697265625 60.9847412109375 325.1323547363281 21.966522216796875Q260.45001220703125 -17.05169677734375 260.45001220703125 -105.86016845703125Q260.45001220703125 -190.66864013671875 330.5943603515625 -231.64886474609375Q400.73870849609375 -272.62908935546875 546.951416015625 -272.62908935546875ZM565.431640625 477.82684326171875Q687.0364379882812 477.82684326171875 752.2628479003906 541.3511352539062Q817.4892578125 604.8754272460938 817.4892578125 724.6200561523438Q817.4892578125 843.440673828125 752.2628479003906 909.2749938964844Q687.0364379882812 975.1093139648438 565.431640625 975.1093139648438Q444.82684326171875 975.1093139648438 380.4484558105469 909.7369995117188Q316.070068359375 844.3646850585938 316.070068359375 724.6200561523438Q316.070068359375 604.8754272460938 380.4484558105469 541.3511352539062Q444.82684326171875 477.82684326171875 565.431640625 477.82684326171875ZM741 985.52880859375V1092.832763671875Q741 1163.911865234375 791.2036743164062 1208.5775451660156Q841.4073486328125 1253.2432250976562 913.158203125 1253.2432250976562H1039.5867309570312V1102.6047973632812H930.7630004882812Q899.7630004882812 1102.6047973632812 890.2630004882812 1091.6047973632812Q880.7630004882812 1080.6047973632812 880.7630004882812 1047.52880859375V985.52880859375Z" transform="translate(266.285 154) scale(0.013184 -0.013184)" fill="#FFFFFF"/><path d="M161.03643798828125 0V1080H346.66583251953125V0ZM253.85113525390625 1253.9330444335938Q191.59576416015625 1253.9330444335938 148.8480224609375 1296.6807861328125Q106.10028076171875 1339.4285278320312 106.10028076171875 1401.6838989257812Q106.10028076171875 1464.86328125 148.8480224609375 1507.1490173339844Q191.59576416015625 1549.4347534179688 253.85113525390625 1549.4347534179688Q317.030517578125 1549.4347534179688 359.3162536621094 1507.1490173339844Q401.60198974609375 1464.86328125 401.60198974609375 1401.6838989257812Q401.60198974609375 1339.4285278320312 359.3162536621094 1296.6807861328125Q317.030517578125 1253.9330444335938 253.85113525390625 1253.9330444335938Z" transform="translate(281.354 154) scale(0.013184 -0.013184)" fill="#FFFFFF"/><path d="M160.03643798828125 0V1080H335.66583251953125V835.3161010742188L328.58984375 879.39208984375Q372.42572021484375 974.2918090820312 465.0077819824219 1039.2978820800781Q557.58984375 1104.303955078125 689.9059448242188 1104.303955078125Q806.3497314453125 1104.303955078125 889.0077819824219 1052.4680786132812Q971.6658325195312 1000.6322021484375 1015.8299560546875 905.2583312988281Q1059.9940795898438 809.8844604492188 1059.9940795898438 677.0364379882812V0H874.3646850585938V663.2005615234375Q874.3646850585938 793.7689208984375 822.1063537597656 873.2612915039062Q769.8480224609375 952.753662109375 649.1033935546875 952.753662109375Q517.3709106445312 952.753662109375 431.51837158203125 851.2415161132812Q345.66583251953125 749.7293701171875 345.66583251953125 555.5014038085938V0Z" transform="translate(288.051 154) scale(0.013184 -0.013184)" fill="#FFFFFF"/><path d="M605.3313598632812 -24.303955078125Q450.72344970703125 -24.303955078125 336.32373046875 44.734039306640625Q221.92401123046875 113.77203369140625 159.17626953125 240.38601684570312Q96.42852783203125 367 96.42852783203125 539.303955078125Q96.42852783203125 712.303955078125 158.98629760742188 839.2659606933594Q221.5440673828125 966.2279663085938 334.5577697753906 1035.2659606933594Q447.57147216796875 1104.303955078125 599.0152587890625 1104.303955078125Q685.47119140625 1104.303955078125 772.6550903320312 1076.8419494628906Q859.8389892578125 1049.3799438476562 932.0608825683594 981.7279663085938Q1004.2827758789062 914.0759887695312 1048.2387084960938 795.9300842285156Q1092.1946411132812 677.7841796875 1092.1946411132812 497.34039306640625H215.7508544921875V637.8997192382812H930.009033203125L884.2127075195312 576.2675170898438Q878.832763671875 713.6322021484375 839.0865783691406 796.9346008300781Q799.3403930664062 880.2369995117188 736.0440673828125 917.59716796875Q672.7477416992188 954.9573364257812 595.3313598632812 954.9573364257812Q502.45904541015625 954.9573364257812 435.6627197265625 906.0652465820312Q368.86639404296875 857.1731567382812 333.3101806640625 764.1488647460938Q297.75396728515625 671.1245727539062 297.75396728515625 538.2279663085938Q297.75396728515625 341.9271240234375 377.2524108886719 234.24478149414062Q456.7508544921875 126.56243896484375 605.0274047851562 126.56243896484375Q710.303955078125 126.56243896484375 782.6382751464844 179.77670288085938Q854.9725952148438 232.990966796875 889.440673828125 334.559326171875L1068.6505737304688 276.81158447265625Q1029.7265625 180.4559326171875 963.1307983398438 113.3480224609375Q896.5350341796875 46.2401123046875 805.667236328125 10.96807861328125Q714.7994384765625 -24.303955078125 605.3313598632812 -24.303955078125Z" transform="translate(303.872 154) scale(0.013184 -0.013184)" fill="#FFFFFF"/><path d="M605.3313598632812 -24.303955078125Q450.72344970703125 -24.303955078125 336.32373046875 44.734039306640625Q221.92401123046875 113.77203369140625 159.17626953125 240.38601684570312Q96.42852783203125 367 96.42852783203125 539.303955078125Q96.42852783203125 712.303955078125 158.98629760742188 839.2659606933594Q221.5440673828125 966.2279663085938 334.5577697753906 1035.2659606933594Q447.57147216796875 1104.303955078125 599.0152587890625 1104.303955078125Q685.47119140625 1104.303955078125 772.6550903320312 1076.8419494628906Q859.8389892578125 1049.3799438476562 932.0608825683594 981.7279663085938Q1004.2827758789062 914.0759887695312 1048.2387084960938 795.9300842285156Q1092.1946411132812 677.7841796875 1092.1946411132812 497.34039306640625H215.7508544921875V637.8997192382812H930.009033203125L884.2127075195312 576.2675170898438Q878.832763671875 713.6322021484375 839.0865783691406 796.9346008300781Q799.3403930664062 880.2369995117188 736.0440673828125 917.59716796875Q672.7477416992188 954.9573364257812 595.3313598632812 954.9573364257812Q502.45904541015625 954.9573364257812 435.6627197265625 906.0652465820312Q368.86639404296875 857.1731567382812 333.3101806640625 764.1488647460938Q297.75396728515625 671.1245727539062 297.75396728515625 538.2279663085938Q297.75396728515625 341.9271240234375 377.2524108886719 234.24478149414062Q456.7508544921875 126.56243896484375 605.0274047851562 126.56243896484375Q710.303955078125 126.56243896484375 782.6382751464844 179.77670288085938Q854.9725952148438 232.990966796875 889.440673828125 334.559326171875L1068.6505737304688 276.81158447265625Q1029.7265625 180.4559326171875 963.1307983398438 113.3480224609375Q896.5350341796875 46.2401123046875 805.667236328125 10.96807861328125Q714.7994384765625 -24.303955078125 605.3313598632812 -24.303955078125Z" transform="translate(319.428 154) scale(0.013184 -0.013184)" fill="#FFFFFF"/><path d="M160.03643798828125 0V1080H335.66583251953125V849.1002807617188L328.8299560546875 875.8601684570312Q377.285888671875 989 473.2919616699219 1046.6519775390625Q569.2980346679688 1104.303955078125 669.8178100585938 1104.303955078125Q699.1217651367188 1104.303955078125 727.2296752929688 1099.303955078125Q755.3375854492188 1094.303955078125 780.325439453125 1082.303955078125L758.2494506835938 911.23388671875Q701.8816528320312 928.3858642578125 647.0457763671875 928.3858642578125Q610.9940795898438 928.3858642578125 560.1141357421875 914.429931640625Q509.23419189453125 900.4739990234375 460.26611328125 859.6700439453125Q411.29803466796875 818.8660888671875 378.48193359375 739.2460327148438Q345.66583251953125 659.6259765625 345.66583251953125 528.3737182617188V0Z" transform="translate(334.985 154) scale(0.013184 -0.013184)" fill="#FFFFFF"/><path d="M362.4559326171875 0 58.8084716796875 1440H253.933349609375L509.60198974609375 141.54718017578125H502.49859619140625L856.1002807617188 1440H1080.3406982421875L1432.0943603515625 141.54718017578125H1424.990966796875L1680.6596069335938 1440H1875.7844848632812L1572.1370239257812 0H1284.480224609375L947.1703491210938 1293.7384033203125H985.6505737304688L650.1127319335938 0Z" transform="translate(39.000 241) scale(0.011230 -0.011230)" fill="#DDF565"/><path d="M605.3313598632812 -24.303955078125Q450.72344970703125 -24.303955078125 336.32373046875 44.734039306640625Q221.92401123046875 113.77203369140625 159.17626953125 240.38601684570312Q96.42852783203125 367 96.42852783203125 539.303955078125Q96.42852783203125 712.303955078125 158.98629760742188 839.2659606933594Q221.5440673828125 966.2279663085938 334.5577697753906 1035.2659606933594Q447.57147216796875 1104.303955078125 599.0152587890625 1104.303955078125Q685.47119140625 1104.303955078125 772.6550903320312 1076.8419494628906Q859.8389892578125 1049.3799438476562 932.0608825683594 981.7279663085938Q1004.2827758789062 914.0759887695312 1048.2387084960938 795.9300842285156Q1092.1946411132812 677.7841796875 1092.1946411132812 497.34039306640625H215.7508544921875V637.8997192382812H930.009033203125L884.2127075195312 576.2675170898438Q878.832763671875 713.6322021484375 839.0865783691406 796.9346008300781Q799.3403930664062 880.2369995117188 736.0440673828125 917.59716796875Q672.7477416992188 954.9573364257812 595.3313598632812 954.9573364257812Q502.45904541015625 954.9573364257812 435.6627197265625 906.0652465820312Q368.86639404296875 857.1731567382812 333.3101806640625 764.1488647460938Q297.75396728515625 671.1245727539062 297.75396728515625 538.2279663085938Q297.75396728515625 341.9271240234375 377.2524108886719 234.24478149414062Q456.7508544921875 126.56243896484375 605.0274047851562 126.56243896484375Q710.303955078125 126.56243896484375 782.6382751464844 179.77670288085938Q854.9725952148438 232.990966796875 889.440673828125 334.559326171875L1068.6505737304688 276.81158447265625Q1029.7265625 180.4559326171875 963.1307983398438 113.3480224609375Q896.5350341796875 46.2401123046875 805.667236328125 10.96807861328125Q714.7994384765625 -24.303955078125 605.3313598632812 -24.303955078125Z" transform="translate(60.731 241) scale(0.011230 -0.011230)" fill="#DDF565"/><path d="M691.8421020507812 -24.303955078125Q584.0183715820312 -24.303955078125 481.462158203125 29.037994384765625Q378.90594482421875 82.37994384765625 325.2220458984375 208.22796630859375L334.98193359375 215.46807861328125V0H160.1124267578125V1500H345.7418212890625V856.1398315429688L330.1339111328125 872.0638427734375Q375.72967529296875 990.1398315429688 476.5518493652344 1047.2218933105469Q577.3740234375 1104.303955078125 692.5260009765625 1104.303955078125Q825.1339111328125 1104.303955078125 925.0579223632812 1035.4939270019531Q1024.98193359375 966.6838989257812 1080.7159729003906 839.6459045410156Q1136.4500122070312 712.60791015625 1136.4500122070312 538.8480224609375Q1136.4500122070312 365.2401123046875 1080.2159729003906 238.7401123046875Q1023.98193359375 112.2401123046875 923.9059448242188 43.96807861328125Q823.8299560546875 -24.303955078125 691.8421020507812 -24.303955078125ZM637.7113037109375 127.32232666015625Q768.2918090820312 127.32232666015625 851.4422302246094 235.20071411132812Q934.5926513671875 343.0791015625 934.5926513671875 543.1519775390625Q934.5926513671875 737.6807861328125 854.2902526855469 845.2172241210938Q773.9878540039062 952.753662109375 639.7113037109375 952.753662109375Q557.7630004882812 952.753662109375 489.2767028808594 909.7035217285156Q420.7904052734375 866.6533813476562 380.1202087402344 776.0470275878906Q339.45001220703125 685.440673828125 339.45001220703125 542.8480224609375Q339.45001220703125 332.15509033203125 426.7524108886719 229.73870849609375Q514.0548095703125 127.32232666015625 637.7113037109375 127.32232666015625Z" transform="translate(73.983 241) scale(0.011230 -0.011230)" fill="#DDF565"/><path d="" transform="translate(87.662 241) scale(0.011230 -0.011230)" fill="#DDF565"/><path d="M44.03643798828125 -261 695.0364379882812 1587H875.6901245117188L224.69012451171875 -261Z" transform="translate(93.367 241) scale(0.011230 -0.011230)" fill="#DDF565"/><path d="" transform="translate(103.699 241) scale(0.011230 -0.011230)" fill="#DDF565"/><path d="M121.03643798828125 0 201.03643798828125 1440H524.92431640625L917.11865234375 140.638427734375H877.6505737304688L1271.6929321289062 1440H1595.6567993164062L1675.6567993164062 0H1484.4833374023438L1415.2432250976562 1292.6016845703125H1418.2432250976562L1011.27685546875 0H787.1884155273438L378.45001220703125 1292.6016845703125H381.45001220703125L312.20989990234375 0Z" transform="translate(109.404 241) scale(0.011230 -0.011230)" fill="#DDF565"/><path d="M612.9106725744299 -24.303955078125Q459.40185051995354 -24.303955078125 342.2503810573269 47.25078746113429Q225.09891159470016 118.80553000039357 159.45369163719383 245.90276500019678Q93.8084716796875 373 93.8084716796875 540.0379943847656Q93.8084716796875 707.0759887695312 159.45230648768086 834.1489150193836Q225.09614129567424 961.221841269236 342.2451387991701 1032.7628981736805Q459.39413630266597 1104.303955078125 612.8997192382812 1104.303955078125Q766.4954833984375 1104.303955078125 883.6353149414062 1032.7659606933594Q1000.775146484375 961.2279663085938 1066.4590454101562 834.1623161471621Q1132.1429443359375 707.0966659857303 1132.1429443359375 540.0103386080995Q1132.1429443359375 372.92401123046875 1066.4743691122994 245.85108498061635Q1000.8057938886611 118.77815873076393 883.6126442587837 47.23710182631947Q766.4194946289062 -24.303955078125 612.9106725744299 -24.303955078125ZM612.985147606512 126.4864501953125Q760.3525390625 126.4864501953125 845.5850219726562 237.6669800956294Q930.8175048828125 348.8475099959463 930.8175048828125 540Q930.8175048828125 732.0607299804688 845.5755823739566 842.7871398925781Q760.3336598651009 953.5135498046875 612.966268409113 953.5135498046875Q465.598876953125 953.5135498046875 380.36639404296875 842.7871398925781Q295.1339111328125 732.0607299804688 295.1339111328125 540Q295.1339111328125 348.78729248046875 380.3758336416683 237.63687133789062Q465.6177561505241 126.4864501953125 612.985147606512 126.4864501953125Z" transform="translate(129.585 241) scale(0.011230 -0.011230)" fill="#DDF565"/><path d="M691.8421020507812 -24.303955078125Q584.0183715820312 -24.303955078125 481.462158203125 29.037994384765625Q378.90594482421875 82.37994384765625 325.2220458984375 208.22796630859375L334.98193359375 215.46807861328125V0H160.1124267578125V1500H345.7418212890625V856.1398315429688L330.1339111328125 872.0638427734375Q375.72967529296875 990.1398315429688 476.5518493652344 1047.2218933105469Q577.3740234375 1104.303955078125 692.5260009765625 1104.303955078125Q825.1339111328125 1104.303955078125 925.0579223632812 1035.4939270019531Q1024.98193359375 966.6838989257812 1080.7159729003906 839.6459045410156Q1136.4500122070312 712.60791015625 1136.4500122070312 538.8480224609375Q1136.4500122070312 365.2401123046875 1080.2159729003906 238.7401123046875Q1023.98193359375 112.2401123046875 923.9059448242188 43.96807861328125Q823.8299560546875 -24.303955078125 691.8421020507812 -24.303955078125ZM637.7113037109375 127.32232666015625Q768.2918090820312 127.32232666015625 851.4422302246094 235.20071411132812Q934.5926513671875 343.0791015625 934.5926513671875 543.1519775390625Q934.5926513671875 737.6807861328125 854.2902526855469 845.2172241210938Q773.9878540039062 952.753662109375 639.7113037109375 952.753662109375Q557.7630004882812 952.753662109375 489.2767028808594 909.7035217285156Q420.7904052734375 866.6533813476562 380.1202087402344 776.0470275878906Q339.45001220703125 685.440673828125 339.45001220703125 542.8480224609375Q339.45001220703125 332.15509033203125 426.7524108886719 229.73870849609375Q514.0548095703125 127.32232666015625 637.7113037109375 127.32232666015625Z" transform="translate(143.354 241) scale(0.011230 -0.011230)" fill="#DDF565"/><path d="M161.03643798828125 0V1080H346.66583251953125V0ZM253.85113525390625 1253.9330444335938Q191.59576416015625 1253.9330444335938 148.8480224609375 1296.6807861328125Q106.10028076171875 1339.4285278320312 106.10028076171875 1401.6838989257812Q106.10028076171875 1464.86328125 148.8480224609375 1507.1490173339844Q191.59576416015625 1549.4347534179688 253.85113525390625 1549.4347534179688Q317.030517578125 1549.4347534179688 359.3162536621094 1507.1490173339844Q401.60198974609375 1464.86328125 401.60198974609375 1401.6838989257812Q401.60198974609375 1339.4285278320312 359.3162536621094 1296.6807861328125Q317.030517578125 1253.9330444335938 253.85113525390625 1253.9330444335938Z" transform="translate(157.032 241) scale(0.011230 -0.011230)" fill="#DDF565"/><path d="M329.73870849609375 0Q258.0638427734375 0 207.86016845703125 44.665679931640625Q157.656494140625 89.33135986328125 157.656494140625 160.41046142578125V1500H343.285888671875V205.71441650390625Q343.285888671875 172.6688232421875 352.785888671875 161.65362548828125Q362.285888671875 150.638427734375 393.285888671875 150.638427734375H495.32232666015625V0Z" transform="translate(162.737 241) scale(0.011230 -0.011230)" fill="#DDF565"/><path d="M605.3313598632812 -24.303955078125Q450.72344970703125 -24.303955078125 336.32373046875 44.734039306640625Q221.92401123046875 113.77203369140625 159.17626953125 240.38601684570312Q96.42852783203125 367 96.42852783203125 539.303955078125Q96.42852783203125 712.303955078125 158.98629760742188 839.2659606933594Q221.5440673828125 966.2279663085938 334.5577697753906 1035.2659606933594Q447.57147216796875 1104.303955078125 599.0152587890625 1104.303955078125Q685.47119140625 1104.303955078125 772.6550903320312 1076.8419494628906Q859.8389892578125 1049.3799438476562 932.0608825683594 981.7279663085938Q1004.2827758789062 914.0759887695312 1048.2387084960938 795.9300842285156Q1092.1946411132812 677.7841796875 1092.1946411132812 497.34039306640625H215.7508544921875V637.8997192382812H930.009033203125L884.2127075195312 576.2675170898438Q878.832763671875 713.6322021484375 839.0865783691406 796.9346008300781Q799.3403930664062 880.2369995117188 736.0440673828125 917.59716796875Q672.7477416992188 954.9573364257812 595.3313598632812 954.9573364257812Q502.45904541015625 954.9573364257812 435.6627197265625 906.0652465820312Q368.86639404296875 857.1731567382812 333.3101806640625 764.1488647460938Q297.75396728515625 671.1245727539062 297.75396728515625 538.2279663085938Q297.75396728515625 341.9271240234375 377.2524108886719 234.24478149414062Q456.7508544921875 126.56243896484375 605.0274047851562 126.56243896484375Q710.303955078125 126.56243896484375 782.6382751464844 179.77670288085938Q854.9725952148438 232.990966796875 889.440673828125 334.559326171875L1068.6505737304688 276.81158447265625Q1029.7265625 180.4559326171875 963.1307983398438 113.3480224609375Q896.5350341796875 46.2401123046875 805.667236328125 10.96807861328125Q714.7994384765625 -24.303955078125 605.3313598632812 -24.303955078125Z" transform="translate(168.869 241) scale(0.011230 -0.011230)" fill="#DDF565"/><path d="" transform="translate(182.121 241) scale(0.011230 -0.011230)" fill="#DDF565"/><path d="M44.03643798828125 -261 695.0364379882812 1587H875.6901245117188L224.69012451171875 -261Z" transform="translate(187.826 241) scale(0.011230 -0.011230)" fill="#DDF565"/><path d="" transform="translate(198.158 241) scale(0.011230 -0.011230)" fill="#DDF565"/><path d="M161.03643798828125 0V1440H611.5381469726562Q866.2220458984375 1440 1028.9880065917969 1354.1899719238281Q1191.7539672851562 1268.3799438476562 1269.7919616699219 1108.803955078125Q1347.8299560546875 949.2279663085938 1347.8299560546875 729.2401123046875Q1347.8299560546875 482.4559326171875 1256.8558044433594 320.5699157714844Q1165.8816528320312 158.68389892578125 998.0336303710938 79.34194946289062Q830.1856079101562 0 599.5260009765625 0ZM358.51385498046875 163.3497314453125H579.55029296875Q1135.2765502929688 163.3497314453125 1135.2765502929688 720Q1135.2765502929688 890.9725952148438 1079.8783874511719 1015.9391174316406Q1024.480224609375 1140.9056396484375 905.0577697753906 1208.7779541015625Q785.6353149414062 1276.6502685546875 591.5624389648438 1276.6502685546875H358.51385498046875Z" transform="translate(203.863 241) scale(0.011230 -0.011230)" fill="#DDF565"/><path d="M605.3313598632812 -24.303955078125Q450.72344970703125 -24.303955078125 336.32373046875 44.734039306640625Q221.92401123046875 113.77203369140625 159.17626953125 240.38601684570312Q96.42852783203125 367 96.42852783203125 539.303955078125Q96.42852783203125 712.303955078125 158.98629760742188 839.2659606933594Q221.5440673828125 966.2279663085938 334.5577697753906 1035.2659606933594Q447.57147216796875 1104.303955078125 599.0152587890625 1104.303955078125Q685.47119140625 1104.303955078125 772.6550903320312 1076.8419494628906Q859.8389892578125 1049.3799438476562 932.0608825683594 981.7279663085938Q1004.2827758789062 914.0759887695312 1048.2387084960938 795.9300842285156Q1092.1946411132812 677.7841796875 1092.1946411132812 497.34039306640625H215.7508544921875V637.8997192382812H930.009033203125L884.2127075195312 576.2675170898438Q878.832763671875 713.6322021484375 839.0865783691406 796.9346008300781Q799.3403930664062 880.2369995117188 736.0440673828125 917.59716796875Q672.7477416992188 954.9573364257812 595.3313598632812 954.9573364257812Q502.45904541015625 954.9573364257812 435.6627197265625 906.0652465820312Q368.86639404296875 857.1731567382812 333.3101806640625 764.1488647460938Q297.75396728515625 671.1245727539062 297.75396728515625 538.2279663085938Q297.75396728515625 341.9271240234375 377.2524108886719 234.24478149414062Q456.7508544921875 126.56243896484375 605.0274047851562 126.56243896484375Q710.303955078125 126.56243896484375 782.6382751464844 179.77670288085938Q854.9725952148438 232.990966796875 889.440673828125 334.559326171875L1068.6505737304688 276.81158447265625Q1029.7265625 180.4559326171875 963.1307983398438 113.3480224609375Q896.5350341796875 46.2401123046875 805.667236328125 10.96807861328125Q714.7994384765625 -24.303955078125 605.3313598632812 -24.303955078125Z" transform="translate(220.013 241) scale(0.011230 -0.011230)" fill="#DDF565"/><path d="M536.3313598632812 -24.303955078125Q418.6474609375 -24.303955078125 321.4377136230469 13.778106689453125Q224.22796630859375 51.86016845703125 159.7841796875 129.90423583984375Q95.34039306640625 207.94830322265625 74.4163818359375 328.872314453125L263.41046142578125 365.53192138671875Q274.1824951171875 243.39520263671875 346.9848937988281 183.52288818359375Q419.78729248046875 123.65057373046875 532.1915283203125 123.65057373046875Q643.2918090820312 123.65057373046875 707.7461853027344 178.25692749023438Q772.2005615234375 232.86328125 772.2005615234375 310.98785400390625Q772.2005615234375 377.79632568359375 726.0303649902344 417.88446044921875Q679.8601684570312 457.97259521484375 589.7081909179688 474.51666259765625L463.11553955078125 498.30084228515625Q409.50762939453125 508.14886474609375 351.3298034667969 525.8449096679688Q293.1519775390625 543.5409545898438 242.47415161132812 575.4649658203125Q191.79632568359375 607.3889770507812 160.46044921875 659.8829040527344Q129.12457275390625 712.3768310546875 129.12457275390625 792.6686401367188Q129.12457275390625 898.8206176757812 184.8525390625 967.4984436035156Q240.58050537109375 1036.17626953125 333.4862976074219 1070.2401123046875Q426.39208984375 1104.303955078125 535.8875732421875 1104.303955078125Q652.5714721679688 1104.303955078125 740.47119140625 1068.3799438476562Q828.3709106445312 1032.4559326171875 884.1566467285156 965.2279663085938Q939.9423828125 898 958.246337890625 802.1641235351562L761.4680786132812 762.5805053710938Q754.4680786132812 820.9208984375 729.7659606933594 864.705078125Q705.0638427734375 908.4892578125 657.7416687011719 932.685302734375Q610.4194946289062 956.88134765625 534.559326171875 956.88134765625Q443.76300048828125 956.88134765625 379.6885681152344 919.09716796875Q315.6141357421875 881.31298828125 315.6141357421875 806.0364379882812Q315.6141357421875 762.872314453125 338.5320739746094 732.7841796875Q361.45001220703125 702.696044921875 406.79803466796875 682.9939270019531Q452.14605712890625 663.2918090820312 519.3983154296875 648.9757080078125L649.5867309570312 622.1915283203125Q733.814697265625 605.6474609375 805.6885681152344 572.0334777832031Q877.5624389648438 538.4194946289062 921.3603210449219 478.735595703125Q965.158203125 419.05169677734375 965.158203125 321.0638427734375Q965.158203125 213 910.4423828125 135.27203369140625Q855.7265625 57.5440673828125 759.3648376464844 16.62005615234375Q663.0031127929688 -24.303955078125 536.3313598632812 -24.303955078125Z" transform="translate(233.265 241) scale(0.011230 -0.011230)" fill="#DDF565"/><path d="M161.03643798828125 0V1500H346.66583251953125V606.11865234375L841.431640625 1080H1085.5534057617188L644.8726196289062 670.7598876953125L1095.3892822265625 0H878.303955078125L512.3101806640625 546.0697631835938L346.66583251953125 391.753662109375V0Z" transform="translate(245.158 241) scale(0.011230 -0.011230)" fill="#DDF565"/><path d="M401.37091064453125 0Q329.696044921875 0 279.49237060546875 44.665679931640625Q229.2886962890625 89.33135986328125 229.2886962890625 160.41046142578125V929.361572265625H57.94830322265625V1080H229.2886962890625V1304.1002807617188L414.9180908203125 1344.9635620117188V1080H626.9423828125V929.361572265625H414.9180908203125V205.71441650390625Q414.9180908203125 172.6688232421875 424.4180908203125 161.65362548828125Q433.9180908203125 150.638427734375 464.9180908203125 150.638427734375H629.9180908203125V0Z" transform="translate(258.017 241) scale(0.011230 -0.011230)" fill="#DDF565"/><path d="M612.9106725744299 -24.303955078125Q459.40185051995354 -24.303955078125 342.2503810573269 47.25078746113429Q225.09891159470016 118.80553000039357 159.45369163719383 245.90276500019678Q93.8084716796875 373 93.8084716796875 540.0379943847656Q93.8084716796875 707.0759887695312 159.45230648768086 834.1489150193836Q225.09614129567424 961.221841269236 342.2451387991701 1032.7628981736805Q459.39413630266597 1104.303955078125 612.8997192382812 1104.303955078125Q766.4954833984375 1104.303955078125 883.6353149414062 1032.7659606933594Q1000.775146484375 961.2279663085938 1066.4590454101562 834.1623161471621Q1132.1429443359375 707.0966659857303 1132.1429443359375 540.0103386080995Q1132.1429443359375 372.92401123046875 1066.4743691122994 245.85108498061635Q1000.8057938886611 118.77815873076393 883.6126442587837 47.23710182631947Q766.4194946289062 -24.303955078125 612.9106725744299 -24.303955078125ZM612.985147606512 126.4864501953125Q760.3525390625 126.4864501953125 845.5850219726562 237.6669800956294Q930.8175048828125 348.8475099959463 930.8175048828125 540Q930.8175048828125 732.0607299804688 845.5755823739566 842.7871398925781Q760.3336598651009 953.5135498046875 612.966268409113 953.5135498046875Q465.598876953125 953.5135498046875 380.36639404296875 842.7871398925781Q295.1339111328125 732.0607299804688 295.1339111328125 540Q295.1339111328125 348.78729248046875 380.3758336416683 237.63687133789062Q465.6177561505241 126.4864501953125 612.985147606512 126.4864501953125Z" transform="translate(265.957 241) scale(0.011230 -0.011230)" fill="#DDF565"/><path d="M160.03643798828125 -390V1080H334.90594482421875V856.1398315429688L330.1339111328125 872.0638427734375Q375.72967529296875 990.1398315429688 476.5518493652344 1047.2218933105469Q577.3740234375 1104.303955078125 692.5260009765625 1104.303955078125Q825.1339111328125 1104.303955078125 925.0579223632812 1035.4939270019531Q1024.98193359375 966.6838989257812 1080.7159729003906 839.6459045410156Q1136.4500122070312 712.60791015625 1136.4500122070312 538.8480224609375Q1136.4500122070312 365.2401123046875 1080.2159729003906 238.7401123046875Q1023.98193359375 112.2401123046875 923.9059448242188 43.96807861328125Q823.8299560546875 -24.303955078125 691.8421020507812 -24.303955078125Q584.0183715820312 -24.303955078125 481.462158203125 29.037994384765625Q378.90594482421875 82.37994384765625 325.2220458984375 208.22796630859375L341.96978759765625 215.46807861328125V-390ZM637.7113037109375 127.32232666015625Q768.2918090820312 127.32232666015625 851.4422302246094 235.20071411132812Q934.5926513671875 343.0791015625 934.5926513671875 543.1519775390625Q934.5926513671875 737.6807861328125 854.2902526855469 845.2172241210938Q773.9878540039062 952.753662109375 639.7113037109375 952.753662109375Q557.7630004882812 952.753662109375 489.2767028808594 909.7035217285156Q420.7904052734375 866.6533813476562 380.1202087402344 776.0470275878906Q339.45001220703125 685.440673828125 339.45001220703125 542.8480224609375Q339.45001220703125 332.15509033203125 426.7524108886719 229.73870849609375Q514.0548095703125 127.32232666015625 637.7113037109375 127.32232666015625Z" transform="translate(279.725 241) scale(0.011230 -0.011230)" fill="#DDF565"/><path d="M137.75164794921875 0V1440H833.0867309570312Q1092.1631469726562 1440 1221.5283203125 1330.9426879882812Q1350.8934936523438 1221.8853759765625 1350.8934936523438 1005.3482666015625Q1350.8934936523438 790.7920532226562 1211.259765625 681.080810546875Q1071.6260375976562 571.3695678710938 789.7046508789062 571.3695678710938H472.54962158203125V0ZM472.54962158203125 829.7472534179688H810.2035522460938Q911.0147094726562 829.7472534179688 964.5837707519531 875.5466613769531Q1018.15283203125 921.3460693359375 1018.15283203125 1004.3673706054688Q1018.15283203125 1083.465087890625 966.0169067382812 1132.543701171875Q913.8809814453125 1181.622314453125 804.146240234375 1181.622314453125H472.54962158203125Z" transform="translate(625.000 203) scale(0.078125 -0.078125)" fill="#DDF565"/><path d="M797.5966186523438 -26.692138671875Q558.5775146484375 -26.692138671875 395.36627197265625 65.77920532226562Q232.155029296875 158.25054931640625 148.45333862304688 324.5679626464844Q64.75164794921875 490.8853759765625 64.75164794921875 712.61572265625Q64.75164794921875 935.9808959960938 147.94378662109375 1106.0Q231.13592529296875 1276.0191040039062 389.5297546386719 1371.3556213378906Q547.923583984375 1466.692138671875 773.0382080078125 1466.692138671875Q924.7685546875 1466.692138671875 1054.0084533691406 1419.2016906738281Q1183.2483520507812 1371.7112426757812 1276.997802734375 1274.7207946777344Q1370.7472534179688 1177.7303466796875 1414.1697387695312 1028.0573120117188L1074.8133544921875 946.0404052734375Q1044.8515625 1068.1976318359375 966.7920532226562 1125.4683837890625Q888.7325439453125 1182.7391357421875 776.076416015625 1182.7391357421875Q659.4011840820312 1182.7391357421875 578.6590881347656 1125.5841064453125Q497.9169921875 1068.4290771484375 456.56982421875 962.2156372070312Q415.22265625 856.002197265625 415.22265625 707.6539306640625Q415.22265625 578.9595947265625 451.2524108886719 476.919189453125Q487.28216552734375 374.8787841796875 571.0242614746094 316.4063415527344Q654.766357421875 257.93389892578125 797.4033813476562 257.93389892578125Q869.3673706054688 257.93389892578125 951.3016052246094 278.97320556640625Q1033.23583984375 300.01251220703125 1093.4099731445312 362.36077880859375V608.4055786132812L1220.462890625 526.1190185546875H692.8662719726562V795.9000854492188H1413.5158081054688V217.1932373046875Q1321.7090454101562 113.25054931640625 1209.7483520507812 60.606170654296875Q1097.7876586914062 7.9617919921875 989.2016906738281 -9.36517333984375Q880.61572265625 -26.692138671875 797.5966186523438 -26.692138671875Z" transform="translate(734.375 203) scale(0.078125 -0.078125)" fill="#DDF565"/><path d="M624 244H844" stroke="#DDF565" stroke-width="3"/></svg>